<svg xmlns="http://www.w3.org/2000/svg" width="1200" height="520" viewBox="0 0 1200 520"><defs><radialGradient id="bg" cx="50%" cy="50%" r="80%"><stop offset="0%" stop-color="#0a0a1e"/><stop offset="100%" stop-color="#020208"/></radialGradient><linearGradient id="cC" x1="0%" x2="100%" y1="0%" y2="100%"><stop offset="0%" stop-color="#00f0ff" stop-opacity=".18"/><stop offset="100%" stop-color="#035" stop-opacity=".04"/></linearGradient><linearGradient id="vC" x1="0%" x2="100%" y1="0%" y2="100%"><stop offset="0%" stop-color="#7b2dff" stop-opacity=".18"/><stop offset="100%" stop-color="#205" stop-opacity=".04"/></linearGradient><linearGradient id="mC" x1="0%" x2="100%" y1="0%" y2="100%"><stop offset="0%" stop-color="#ff006e" stop-opacity=".18"/><stop offset="100%" stop-color="#402" stop-opacity=".04"/></linearGradient><linearGradient id="gC" x1="0%" x2="100%" y1="0%" y2="100%"><stop offset="0%" stop-color="gold" stop-opacity=".18"/><stop offset="100%" stop-color="#430" stop-opacity=".04"/></linearGradient><filter id="glow"><feGaussianBlur result="b" stdDeviation="5"/><feMerge><feMergeNode in="b"/><feMergeNode in="SourceGraphic"/></feMerge></filter><filter id="cardShadow"><feGaussianBlur result="b" stdDeviation="8"/><feMerge><feMergeNode in="b"/><feMergeNode in="SourceGraphic"/></feMerge></filter><marker id="aC" markerHeight="6" markerWidth="8" orient="auto" refX="7" refY="3"><path fill="#00f0ff" d="M0,0 L0,6 L8,3z" opacity=".9"/></marker><marker id="aV" markerHeight="6" markerWidth="8" orient="auto" refX="7" refY="3"><path fill="#7b2dff" d="M0,0 L0,6 L8,3z" opacity=".9"/></marker><marker id="aM" markerHeight="6" markerWidth="8" orient="auto" refX="7" refY="3"><path fill="#ff006e" d="M0,0 L0,6 L8,3z" opacity=".9"/></marker><marker id="aG" markerHeight="6" markerWidth="8" orient="auto" refX="7" refY="3"><path fill="gold" d="M0,0 L0,6 L8,3z" opacity=".9"/></marker></defs><rect width="1200" height="520" fill="url(#bg)"/><text x="600" y="38" fill="#2a3a55" font-family="monospace" font-size="11" letter-spacing="6" text-anchor="middle">CORE TRIAD ARCHITECTURE — ENCODE → RESONATE → ETCH → PROVENANCE</text><line x1="80" x2="1120" y1="50" y2="50" stroke="#00f0ff" stroke-width=".5" opacity=".25"/><rect width="290" height="220" x="30" y="70" fill="url(#cC)" stroke="#00f0ff" stroke-width="1.5" filter="url(#cardShadow)" opacity=".95" rx="10"/><rect width="290" height="5" x="30" y="70" fill="#00f0ff" opacity=".7" rx="3"/><rect width="290" height="20" x="30" y="75" fill="#00f0ff" fill-opacity=".06"/><text x="175" y="110" fill="#00f0ff" filter="url(#glow)" font-family="monospace" font-size="12" letter-spacing="3" text-anchor="middle">NOVA-NEO ENCODER</text><text x="175" y="132" fill="#fff" font-family="system-ui" font-size="14" font-weight="700" text-anchor="middle">NovaNeoEncoder</text><line x1="50" x2="300" y1="144" y2="144" stroke="#00f0ff" stroke-width=".5" opacity=".3"/><text x="50" y="165" fill="#79b" font-family="monospace" font-size="10">▶ Context → Tensor transform</text><text x="50" y="183" fill="#79b" font-family="monospace" font-size="10">▶ Deterministic fixed-dim encoding</text><text x="50" y="201" fill="#79b" font-family="monospace" font-size="10">▶ Entropy-normalized output</text><text x="50" y="219" fill="#79b" font-family="monospace" font-size="10">▶ SHA-256 hash fingerprint</text><text x="50" y="243" fill="#00f0ff" font-family="monospace" font-size="9" opacity=".65">dims: 64 | normalize: true | seed: det</text><circle cx="175" cy="270" r="16" fill="#00f0ff" fill-opacity=".15" stroke="#00f0ff" stroke-width="1" filter="url(#glow)"/><text x="175" y="274" fill="#00f0ff" font-family="monospace" font-size="9" font-weight="bold" text-anchor="middle">ENC</text><rect width="290" height="240" x="455" y="55" fill="url(#vC)" stroke="#7b2dff" stroke-width="1.5" filter="url(#cardShadow)" opacity=".95" rx="10"/><rect width="290" height="5" x="455" y="55" fill="#7b2dff" opacity=".7" rx="3"/><rect width="290" height="20" x="455" y="60" fill="#7b2dff" fill-opacity=".06"/><text x="600" y="95" fill="#c084fc" filter="url(#glow)" font-family="monospace" font-size="12" letter-spacing="3" text-anchor="middle">STIGMERGY V5</text><text x="600" y="117" fill="#fff" font-family="system-ui" font-size="14" font-weight="700" text-anchor="middle">StigmergyV5</text><line x1="475" x2="725" y1="129" y2="129" stroke="#7b2dff" stroke-width=".5" opacity=".3"/><text x="475" y="150" fill="#a8c" font-family="monospace" font-size="10">▶ Pheromone vector memory</text><text x="475" y="168" fill="#a8c" font-family="monospace" font-size="10">▶ Cosine similarity recall</text><text x="475" y="186" fill="#a8c" font-family="monospace" font-size="10">▶ Merkle-chained trace ledger</text><text x="475" y="204" fill="#a8c" font-family="monospace" font-size="10">▶ Ant-colony stigmergy model</text><text x="475" y="222" fill="#a8c" font-family="monospace" font-size="10">▶ Resonance threshold gating</text><text x="475" y="246" fill="#7b2dff" font-family="monospace" font-size="9" opacity=".75">threshold: 0.4 | store: in-memory | chain: merkle</text><circle cx="600" cy="278" r="16" fill="#7b2dff" fill-opacity=".15" stroke="#7b2dff" stroke-width="1" filter="url(#glow)"/><text x="600" y="282" fill="#c084fc" font-family="monospace" font-size="9" font-weight="bold" text-anchor="middle">MEM</text><rect width="290" height="220" x="880" y="70" fill="url(#mC)" stroke="#ff006e" stroke-width="1.5" filter="url(#cardShadow)" opacity=".95" rx="10"/><rect width="290" height="5" x="880" y="70" fill="#ff006e" opacity=".7" rx="3"/><rect width="290" height="20" x="880" y="75" fill="#ff006e" fill-opacity=".06"/><text x="1025" y="110" fill="#ff6eb4" filter="url(#glow)" font-family="monospace" font-size="12" letter-spacing="3" text-anchor="middle">HOLOGRAPHIC ETCH</text><text x="1025" y="132" fill="#fff" font-family="system-ui" font-size="14" font-weight="700" text-anchor="middle">HolographicEtch</text><line x1="900" x2="1150" y1="144" y2="144" stroke="#ff006e" stroke-width=".5" opacity=".3"/><text x="900" y="165" fill="#c68" font-family="monospace" font-size="10">▶ Append-only confidence ledger</text><text x="900" y="183" fill="#c68" font-family="monospace" font-size="10">▶ Rank-1 micro-etch accumulator</text><text x="900" y="201" fill="#c68" font-family="monospace" font-size="10">▶ Replayable etch chain</text><text x="900" y="219" fill="#c68" font-family="monospace" font-size="10">▶ Confidence floor enforcement</text><text x="900" y="243" fill="#ff006e" font-family="monospace" font-size="9" opacity=".65">floor: 0 | mode: append | replay: true</text><circle cx="1025" cy="270" r="16" fill="#ff006e" fill-opacity=".15" stroke="#ff006e" stroke-width="1" filter="url(#glow)"/><text x="1025" y="274" fill="#ff6eb4" font-family="monospace" font-size="9" font-weight="bold" text-anchor="middle">ETH</text><path fill="none" stroke="#00f0ff" stroke-dasharray="7 4" stroke-width="1.8" marker-end="url(#aC)" d="M320,183 C380,183 390,173 453,173" opacity=".75"/><text x="387" y="163" fill="#00f0ff" font-family="monospace" font-size="9" opacity=".9" text-anchor="middle">encode()</text><path fill="none" stroke="#7b2dff" stroke-dasharray="7 4" stroke-width="1.8" marker-end="url(#aV)" d="M745,173 C810,173 820,183 878,183" opacity=".75"/><text x="812" y="163" fill="#c084fc" font-family="monospace" font-size="9" opacity=".9" text-anchor="middle">resonate()</text><rect width="600" height="150" x="300" y="340" fill="url(#gC)" stroke="gold" stroke-width="1.5" filter="url(#cardShadow)" opacity=".95" rx="10"/><rect width="600" height="5" x="300" y="340" fill="gold" opacity=".6" rx="3"/><text x="600" y="375" fill="gold" filter="url(#glow)" font-family="monospace" font-size="12" letter-spacing="4" text-anchor="middle">PROVENANCE METADATA BUNDLE</text><text x="600" y="397" fill="#fff" font-family="system-ui" font-size="14" font-weight="700" text-anchor="middle">ProvenanceMetadata</text><line x1="320" x2="880" y1="408" y2="408" stroke="gold" stroke-width=".5" opacity=".3"/><text x="330" y="425" fill="#a93" font-family="monospace" font-size="10">merkleRoot: string (sha256)</text><text x="330" y="441" fill="#a93" font-family="monospace" font-size="10">timestamp: ISO8601</text><text x="330" y="457" fill="#a93" font-family="monospace" font-size="10">sessionId: uuid-v4</text><text x="600" y="425" fill="#a93" font-family="monospace" font-size="10">encodeHash: hex64</text><text x="600" y="441" fill="#a93" font-family="monospace" font-size="10">resonanceScore: float[0-1]</text><text x="600" y="457" fill="#a93" font-family="monospace" font-size="10">etchSequence: uint32</text><text x="860" y="425" fill="#a93" font-family="monospace" font-size="10">chainDepth: uint</text><text x="860" y="441" fill="#a93" font-family="monospace" font-size="10">verified: boolean</text><path fill="none" stroke="#00f0ff" stroke-dasharray="6 4" stroke-width="1.5" marker-end="url(#aC)" d="M175,286 Q175,330 305,360" opacity=".5"/><path fill="none" stroke="#7b2dff" stroke-dasharray="6 4" stroke-width="1.5" marker-end="url(#aV)" d="M600,294 L600,338" opacity=".5"/><path fill="none" stroke="#ff006e" stroke-dasharray="6 4" stroke-width="1.5" marker-end="url(#aM)" d="M1025,286 Q1025,330 895,360" opacity=".5"/><text x="600" y="325" fill="gold" font-family="monospace" font-size="9" opacity=".7" text-anchor="middle">↓ etch() → provenance</text><text x="600" y="506" fill="#1a2a3a" font-family="monospace" font-size="10" text-anchor="middle">Universal Adapter Protocol v2.1 · Every run is cryptographically-linked</text></svg>