<svg xmlns="http://www.w3.org/2000/svg" width="1200" height="600" viewBox="0 0 1200 600"><defs><radialGradient id="deepSpace" cx="50%" cy="45%" r="75%"><stop offset="0%" stop-color="#0d0d2b"/><stop offset="40%" stop-color="#060614"/><stop offset="100%" stop-color="#000005"/></radialGradient><radialGradient id="coreGlow" cx="50%" cy="50%" r="50%"><stop offset="0%" stop-color="#00f0ff" stop-opacity=".35"/><stop offset="100%" stop-color="#00f0ff" stop-opacity="0"/></radialGradient><radialGradient id="violetAura" cx="50%" cy="50%" r="50%"><stop offset="0%" stop-color="#7b2dff" stop-opacity=".4"/><stop offset="100%" stop-color="#7b2dff" stop-opacity="0"/></radialGradient><radialGradient id="magentaAura" cx="50%" cy="50%" r="50%"><stop offset="0%" stop-color="#ff006e" stop-opacity=".35"/><stop offset="100%" stop-color="#ff006e" stop-opacity="0"/></radialGradient><linearGradient id="titleGrad" x1="0%" x2="100%" y1="0%" y2="0%"><stop offset="0%" stop-color="#00f0ff"/><stop offset="45%" stop-color="#fff"/><stop offset="100%" stop-color="#7b2dff"/></linearGradient><linearGradient id="subGrad" x1="0%" x2="100%" y1="0%" y2="0%"><stop offset="0%" stop-color="#00f0ff" stop-opacity=".8"/><stop offset="100%" stop-color="#7b2dff" stop-opacity=".8"/></linearGradient><linearGradient id="goldGrad" x1="0%" x2="100%" y1="0%" y2="0%"><stop offset="0%" stop-color="gold"/><stop offset="100%" stop-color="#fa0"/></linearGradient><linearGradient id="horizLine" x1="0%" x2="100%" y1="0%" y2="0%"><stop offset="0%" stop-color="#00f0ff" stop-opacity="0"/><stop offset="20%" stop-color="#00f0ff" stop-opacity=".8"/><stop offset="50%" stop-color="#fff" stop-opacity="1"/><stop offset="80%" stop-color="#7b2dff" stop-opacity=".8"/><stop offset="100%" stop-color="#7b2dff" stop-opacity="0"/></linearGradient><filter id="masterGlow" width="160%" height="160%" x="-30%" y="-30%"><feGaussianBlur result="blur" stdDeviation="6"/><feMerge><feMergeNode in="blur"/><feMergeNode in="SourceGraphic"/></feMerge></filter><filter id="superGlow" width="200%" height="200%" x="-50%" y="-50%"><feGaussianBlur result="blur" stdDeviation="14"/><feMerge><feMergeNode in="blur"/><feMergeNode in="blur"/><feMergeNode in="SourceGraphic"/></feMerge></filter><filter id="textGlow" width="140%" height="140%" x="-20%" y="-20%"><feGaussianBlur result="blur" stdDeviation="3"/><feMerge><feMergeNode in="blur"/><feMergeNode in="SourceGraphic"/></feMerge></filter><filter id="softBlur"><feGaussianBlur stdDeviation="20"/></filter><pattern id="hexTile" width="80" height="69" x="0" y="0" patternUnits="userSpaceOnUse"><polygon fill="none" stroke="#00f0ff" stroke-width=".5" points="40 1 79 21 79 61 40 81 1 61 1 21" opacity=".12"/><polygon fill="none" stroke="#7b2dff" stroke-width=".3" points="40 15 65 29 65 57 40 71 15 57 15 29" opacity=".07"/></pattern><clipPath id="clip"><rect width="1200" height="600"/></clipPath></defs><g clip-path="url(#clip)"><rect width="1200" height="600" fill="url(#deepSpace)"/><rect width="1200" height="600" fill="url(#hexTile)"/><ellipse cx="600" cy="300" fill="url(#coreGlow)" filter="url(#softBlur)" rx="700" ry="320"/><ellipse cx="200" cy="420" fill="url(#violetAura)" filter="url(#softBlur)" rx="280" ry="200"/><ellipse cx="1000" cy="180" fill="url(#magentaAura)" filter="url(#softBlur)" rx="260" ry="190"/><circle cx="120" cy="80" r="1.5" fill="#00f0ff" opacity=".9"/><circle cx="340" cy="45" r="1" fill="#fff" opacity=".7"/><circle cx="560" cy="25" r="2" fill="#7b2dff" opacity=".8"/><circle cx="780" cy="55" r="1.2" fill="#00f0ff" opacity=".6"/><circle cx="950" cy="30" r="1.8" fill="#fff" opacity=".5"/><circle cx="1100" cy="70" r="1" fill="#ff006e" opacity=".8"/><circle cx="80" cy="200" r="1.3" fill="#7b2dff" opacity=".6"/><circle cx="1150" cy="150" r="1.5" fill="#00f0ff" opacity=".5"/><circle cx="1050" cy="520" r="1.2" fill="#ff006e" opacity=".7"/><circle cx="200" cy="550" r="1" fill="#7b2dff" opacity=".5"/><circle cx="450" cy="570" r="1.8" fill="#fff" opacity=".4"/><circle cx="700" cy="540" r="1" fill="#00f0ff" opacity=".6"/><polyline fill="none" stroke="#00f0ff" stroke-linecap="round" stroke-width="2.5" points="20 10 20 50 55 50" opacity=".9"/><circle cx="20" cy="10" r="3" fill="#00f0ff" opacity=".6"/><polyline fill="none" stroke="#00f0ff" stroke-linecap="round" stroke-width="2.5" points="1180 10 1180 50 1145 50" opacity=".9"/><circle cx="1180" cy="10" r="3" fill="#00f0ff" opacity=".6"/><polyline fill="none" stroke="#7b2dff" stroke-linecap="round" stroke-width="2.5" points="20 590 20 550 55 550" opacity=".9"/><circle cx="20" cy="590" r="3" fill="#7b2dff" opacity=".6"/><polyline fill="none" stroke="#7b2dff" stroke-linecap="round" stroke-width="2.5" points="1180 590 1180 550 1145 550" opacity=".9"/><circle cx="1180" cy="590" r="3" fill="#7b2dff" opacity=".6"/><line x1="55" x2="1145" y1="50" y2="50" stroke="#00f0ff" stroke-width=".4" opacity=".2"/><line x1="55" x2="1145" y1="550" y2="550" stroke="#7b2dff" stroke-width=".4" opacity=".2"/><line x1="0" x2="1200" y1="140" y2="140" stroke="#00f0ff" stroke-width=".3" opacity=".08"/><line x1="0" x2="1200" y1="300" y2="300" stroke="#7b2dff" stroke-width=".3" opacity=".06"/><line x1="0" x2="1200" y1="460" y2="460" stroke="#00f0ff" stroke-width=".3" opacity=".06"/><circle cx="830" cy="220" r="110" fill="#00f0ff" opacity=".04"/><circle cx="830" cy="220" r="88" fill="none" stroke="#00f0ff" stroke-width="1.5" filter="url(#masterGlow)" opacity=".35"/><circle cx="830" cy="220" r="68" fill="none" stroke="#00f0ff" stroke-width=".8" opacity=".5"/><circle cx="830" cy="220" r="46" fill="#00f0ff" opacity=".08"/><circle cx="830" cy="220" r="30" fill="#00f0ff" filter="url(#masterGlow)" opacity=".2"/><circle cx="830" cy="220" r="14" fill="#00f0ff" filter="url(#superGlow)" opacity=".6"/><text x="830" y="216" fill="#fff" font-family="monospace" font-size="9" font-weight="bold" letter-spacing="1" text-anchor="middle">NOVA</text><text x="830" y="228" fill="#00f0ff" font-family="monospace" font-size="8" text-anchor="middle">NEO</text><circle cx="1010" cy="380" r="90" fill="#7b2dff" opacity=".04"/><circle cx="1010" cy="380" r="72" fill="none" stroke="#7b2dff" stroke-width="1.5" filter="url(#masterGlow)" opacity=".35"/><circle cx="1010" cy="380" r="54" fill="none" stroke="#7b2dff" stroke-width=".8" opacity=".5"/><circle cx="1010" cy="380" r="36" fill="#7b2dff" opacity=".1"/><circle cx="1010" cy="380" r="22" fill="#7b2dff" filter="url(#masterGlow)" opacity=".25"/><circle cx="1010" cy="380" r="11" fill="#7b2dff" filter="url(#superGlow)" opacity=".7"/><text x="1010" y="376" fill="#fff" font-family="monospace" font-size="8" font-weight="bold" text-anchor="middle">STIG</text><text x="1010" y="387" fill="#c084fc" font-family="monospace" font-size="7" text-anchor="middle">MERGY</text><circle cx="720" cy="400" r="78" fill="#ff006e" opacity=".04"/><circle cx="720" cy="400" r="62" fill="none" stroke="#ff006e" stroke-width="1.5" filter="url(#masterGlow)" opacity=".35"/><circle cx="720" cy="400" r="46" fill="none" stroke="#ff006e" stroke-width=".8" opacity=".5"/><circle cx="720" cy="400" r="30" fill="#ff006e" opacity=".1"/><circle cx="720" cy="400" r="18" fill="#ff006e" filter="url(#masterGlow)" opacity=".25"/><circle cx="720" cy="400" r="9" fill="#ff006e" filter="url(#superGlow)" opacity=".7"/><text x="720" y="396" fill="#fff" font-family="monospace" font-size="8" font-weight="bold" text-anchor="middle">HOLO</text><text x="720" y="407" fill="#ff6eb4" font-family="monospace" font-size="7" text-anchor="middle">ETCH</text><circle cx="870" cy="310" r="18" fill="gold" opacity=".12"/><circle cx="870" cy="310" r="11" fill="gold" filter="url(#masterGlow)" opacity=".3"/><circle cx="870" cy="310" r="5" fill="gold" filter="url(#superGlow)" opacity=".9"/><line x1="830" x2="865" y1="308" y2="310" stroke="#00f0ff" stroke-dasharray="5 3" stroke-width="1.2" opacity=".6"/><line x1="1010" x2="882" y1="309" y2="311" stroke="#7b2dff" stroke-dasharray="5 3" stroke-width="1.2" opacity=".6"/><line x1="720" x2="865" y1="341" y2="313" stroke="#ff006e" stroke-dasharray="5 3" stroke-width="1.2" opacity=".6"/><polygon fill="gold" points="865 307 870 310 865 313" opacity=".9"/><text x="870" y="296" fill="gold" font-family="monospace" font-size="7" opacity=".8" text-anchor="middle">PRV</text><text x="150" y="118" fill="#346" font-family="monospace" font-size="11" letter-spacing="5" opacity=".9" text-anchor="start">[ KULLAILABS ] — MCOP v2.2.1</text><line x1="150" x2="560" y1="130" y2="130" stroke="#00f0ff" stroke-width=".5" opacity=".3"/><text x="145" y="230" fill="url(#titleGrad)" filter="url(#superGlow)" font-family="system-ui,Arial,sans-serif" font-size="105" font-weight="900" letter-spacing="-4">MCOP</text><text x="148" y="295" fill="#fff" font-family="system-ui,Arial,sans-serif" font-size="46" font-weight="200" letter-spacing="8" opacity=".95">Framework</text><text x="495" y="295" fill="url(#subGrad)" filter="url(#textGlow)" font-family="system-ui,Arial,sans-serif" font-size="46" font-weight="700" letter-spacing="2">2.0</text><line x1="148" x2="600" y1="318" y2="318" stroke="url(#horizLine)" stroke-width="1.5"/><text x="150" y="348" fill="#79b" font-family="system-ui,Arial,sans-serif" font-size="16" letter-spacing="1">Deterministic · Auditable · Provenance-First · Human-in-Loop</text><text x="150" y="388" fill="#346" font-family="monospace" font-size="12" letter-spacing="3">encode → resonate → etch → provenance</text><rect width="130" height="34" x="150" y="420" fill="#00f0ff" fill-opacity=".08" stroke="#00f0ff" stroke-width="1" opacity=".8" rx="4"/><text x="215" y="442" fill="#00f0ff" font-family="monospace" font-size="11" font-weight="bold" text-anchor="middle">TypeScript</text><rect width="130" height="34" x="298" y="420" fill="#7b2dff" fill-opacity=".08" stroke="#7b2dff" stroke-width="1" opacity=".8" rx="4"/><text x="363" y="442" fill="#c084fc" font-family="monospace" font-size="11" font-weight="bold" text-anchor="middle">Python</text><rect width="130" height="34" x="446" y="420" fill="#ff006e" fill-opacity=".08" stroke="#ff006e" stroke-width="1" opacity=".8" rx="4"/><text x="511" y="442" fill="#ff6eb4" font-family="monospace" font-size="11" font-weight="bold" text-anchor="middle">Next.js 15.5</text><text x="150" y="500" fill="#1a2a3a" font-family="monospace" font-size="11">github.com/Kuonirad/MCOP-Framework-2.0</text><rect width="110" height="30" x="1060" y="510" fill="gold" fill-opacity=".1" stroke="gold" stroke-width="1" opacity=".7" rx="5"/><text x="1115" y="530" fill="gold" filter="url(#textGlow)" font-family="monospace" font-size="12" font-weight="bold" text-anchor="middle">v 2.2.1</text></g></svg>