<svg xmlns="http://www.w3.org/2000/svg" viewBox="0 0 1200 600" width="1200" height="600">
<defs>
<radialGradient id="deepSpace" cx="50%" cy="45%" r="75%">
<stop offset="0%" stop-color="#0d0d2b"/>
<stop offset="40%" stop-color="#060614"/>
<stop offset="100%" stop-color="#000005"/>
</radialGradient>
<radialGradient id="coreGlow" cx="50%" cy="50%" r="50%">
<stop offset="0%" stop-color="#00f0ff" stop-opacity="0.35"/>
<stop offset="100%" stop-color="#00f0ff" stop-opacity="0"/>
</radialGradient>
<radialGradient id="violetAura" cx="50%" cy="50%" r="50%">
<stop offset="0%" stop-color="#7b2dff" stop-opacity="0.4"/>
<stop offset="100%" stop-color="#7b2dff" stop-opacity="0"/>
</radialGradient>
<radialGradient id="magentaAura" cx="50%" cy="50%" r="50%">
<stop offset="0%" stop-color="#ff006e" stop-opacity="0.35"/>
<stop offset="100%" stop-color="#ff006e" stop-opacity="0"/>
</radialGradient>
<linearGradient id="titleGrad" x1="0%" y1="0%" x2="100%" y2="0%">
<stop offset="0%" stop-color="#00f0ff"/>
<stop offset="45%" stop-color="#ffffff"/>
<stop offset="100%" stop-color="#7b2dff"/>
</linearGradient>
<linearGradient id="subGrad" x1="0%" y1="0%" x2="100%" y2="0%">
<stop offset="0%" stop-color="#00f0ff" stop-opacity="0.8"/>
<stop offset="100%" stop-color="#7b2dff" stop-opacity="0.8"/>
</linearGradient>
<linearGradient id="goldGrad" x1="0%" y1="0%" x2="100%" y2="0%">
<stop offset="0%" stop-color="#ffd700"/>
<stop offset="100%" stop-color="#ffaa00"/>
</linearGradient>
<linearGradient id="horizLine" x1="0%" y1="0%" x2="100%" y2="0%">
<stop offset="0%" stop-color="#00f0ff" stop-opacity="0"/>
<stop offset="20%" stop-color="#00f0ff" stop-opacity="0.8"/>
<stop offset="50%" stop-color="#ffffff" stop-opacity="1"/>
<stop offset="80%" stop-color="#7b2dff" stop-opacity="0.8"/>
<stop offset="100%" stop-color="#7b2dff" stop-opacity="0"/>
</linearGradient>
<filter id="masterGlow" x="-30%" y="-30%" width="160%" height="160%">
<feGaussianBlur stdDeviation="6" result="blur"/>
<feMerge><feMergeNode in="blur"/><feMergeNode in="SourceGraphic"/></feMerge>
</filter>
<filter id="superGlow" x="-50%" y="-50%" width="200%" height="200%">
<feGaussianBlur stdDeviation="14" result="blur"/>
<feMerge><feMergeNode in="blur"/><feMergeNode in="blur"/><feMergeNode in="SourceGraphic"/></feMerge>
</filter>
<filter id="textGlow" x="-20%" y="-20%" width="140%" height="140%">
<feGaussianBlur stdDeviation="3" result="blur"/>
<feMerge><feMergeNode in="blur"/><feMergeNode in="SourceGraphic"/></feMerge>
</filter>
<filter id="softBlur">
<feGaussianBlur stdDeviation="20"/>
</filter>
<pattern id="hexTile" x="0" y="0" width="80" height="69" patternUnits="userSpaceOnUse">
<polygon points="40,1 79,21 79,61 40,81 1,61 1,21" fill="none" stroke="#00f0ff" stroke-width="0.5" opacity="0.12"/>
<polygon points="40,15 65,29 65,57 40,71 15,57 15,29" fill="none" stroke="#7b2dff" stroke-width="0.3" opacity="0.07"/>
</pattern>
<clipPath id="clip">
<rect width="1200" height="600"/>
</clipPath>
</defs>
<g clip-path="url(#clip)">
<rect width="1200" height="600" fill="url(#deepSpace)"/>
<rect width="1200" height="600" fill="url(#hexTile)"/>
<ellipse cx="600" cy="300" rx="700" ry="320" fill="url(#coreGlow)" filter="url(#softBlur)"/>
<ellipse cx="200" cy="420" rx="280" ry="200" fill="url(#violetAura)" filter="url(#softBlur)"/>
<ellipse cx="1000" cy="180" rx="260" ry="190" fill="url(#magentaAura)" filter="url(#softBlur)"/>
<circle cx="120" cy="80" r="1.5" fill="#00f0ff" opacity="0.9"/>
<circle cx="340" cy="45" r="1" fill="#ffffff" opacity="0.7"/>
<circle cx="560" cy="25" r="2" fill="#7b2dff" opacity="0.8"/>
<circle cx="780" cy="55" r="1.2" fill="#00f0ff" opacity="0.6"/>
<circle cx="950" cy="30" r="1.8" fill="#ffffff" opacity="0.5"/>
<circle cx="1100" cy="70" r="1" fill="#ff006e" opacity="0.8"/>
<circle cx="80" cy="200" r="1.3" fill="#7b2dff" opacity="0.6"/>
<circle cx="1150" cy="150" r="1.5" fill="#00f0ff" opacity="0.5"/>
<circle cx="1050" cy="520" r="1.2" fill="#ff006e" opacity="0.7"/>
<circle cx="200" cy="550" r="1" fill="#7b2dff" opacity="0.5"/>
<circle cx="450" cy="570" r="1.8" fill="#ffffff" opacity="0.4"/>
<circle cx="700" cy="540" r="1" fill="#00f0ff" opacity="0.6"/>
<polyline points="20,10 20,50 55,50" fill="none" stroke="#00f0ff" stroke-width="2.5" opacity="0.9" stroke-linecap="round"/>
<circle cx="20" cy="10" r="3" fill="#00f0ff" opacity="0.6"/>
<polyline points="1180,10 1180,50 1145,50" fill="none" stroke="#00f0ff" stroke-width="2.5" opacity="0.9" stroke-linecap="round"/>
<circle cx="1180" cy="10" r="3" fill="#00f0ff" opacity="0.6"/>
<polyline points="20,590 20,550 55,550" fill="none" stroke="#7b2dff" stroke-width="2.5" opacity="0.9" stroke-linecap="round"/>
<circle cx="20" cy="590" r="3" fill="#7b2dff" opacity="0.6"/>
<polyline points="1180,590 1180,550 1145,550" fill="none" stroke="#7b2dff" stroke-width="2.5" opacity="0.9" stroke-linecap="round"/>
<circle cx="1180" cy="590" r="3" fill="#7b2dff" opacity="0.6"/>
<line x1="55" y1="50" x2="1145" y2="50" stroke="#00f0ff" stroke-width="0.4" opacity="0.2"/>
<line x1="55" y1="550" x2="1145" y2="550" stroke="#7b2dff" stroke-width="0.4" opacity="0.2"/>
<line x1="0" y1="140" x2="1200" y2="140" stroke="#00f0ff" stroke-width="0.3" opacity="0.08"/>
<line x1="0" y1="300" x2="1200" y2="300" stroke="#7b2dff" stroke-width="0.3" opacity="0.06"/>
<line x1="0" y1="460" x2="1200" y2="460" stroke="#00f0ff" stroke-width="0.3" opacity="0.06"/>
<circle cx="830" cy="220" r="110" fill="#00f0ff" opacity="0.04"/>
<circle cx="830" cy="220" r="88" fill="none" stroke="#00f0ff" stroke-width="1.5" opacity="0.35" filter="url(#masterGlow)"/>
<circle cx="830" cy="220" r="68" fill="none" stroke="#00f0ff" stroke-width="0.8" opacity="0.5"/>
<circle cx="830" cy="220" r="46" fill="#00f0ff" opacity="0.08"/>
<circle cx="830" cy="220" r="30" fill="#00f0ff" opacity="0.2" filter="url(#masterGlow)"/>
<circle cx="830" cy="220" r="14" fill="#00f0ff" opacity="0.6" filter="url(#superGlow)"/>
<text x="830" y="216" text-anchor="middle" fill="#ffffff" font-family="monospace" font-size="9" font-weight="bold" letter-spacing="1">NOVA</text>
<text x="830" y="228" text-anchor="middle" fill="#00f0ff" font-family="monospace" font-size="8">NEO</text>
<circle cx="1010" cy="380" r="90" fill="#7b2dff" opacity="0.04"/>
<circle cx="1010" cy="380" r="72" fill="none" stroke="#7b2dff" stroke-width="1.5" opacity="0.35" filter="url(#masterGlow)"/>
<circle cx="1010" cy="380" r="54" fill="none" stroke="#7b2dff" stroke-width="0.8" opacity="0.5"/>
<circle cx="1010" cy="380" r="36" fill="#7b2dff" opacity="0.1"/>
<circle cx="1010" cy="380" r="22" fill="#7b2dff" opacity="0.25" filter="url(#masterGlow)"/>
<circle cx="1010" cy="380" r="11" fill="#7b2dff" opacity="0.7" filter="url(#superGlow)"/>
<text x="1010" y="376" text-anchor="middle" fill="#ffffff" font-family="monospace" font-size="8" font-weight="bold">STIG</text>
<text x="1010" y="387" text-anchor="middle" fill="#c084fc" font-family="monospace" font-size="7">MERGY</text>
<circle cx="720" cy="400" r="78" fill="#ff006e" opacity="0.04"/>
<circle cx="720" cy="400" r="62" fill="none" stroke="#ff006e" stroke-width="1.5" opacity="0.35" filter="url(#masterGlow)"/>
<circle cx="720" cy="400" r="46" fill="none" stroke="#ff006e" stroke-width="0.8" opacity="0.5"/>
<circle cx="720" cy="400" r="30" fill="#ff006e" opacity="0.1"/>
<circle cx="720" cy="400" r="18" fill="#ff006e" opacity="0.25" filter="url(#masterGlow)"/>
<circle cx="720" cy="400" r="9" fill="#ff006e" opacity="0.7" filter="url(#superGlow)"/>
<text x="720" y="396" text-anchor="middle" fill="#ffffff" font-family="monospace" font-size="8" font-weight="bold">HOLO</text>
<text x="720" y="407" text-anchor="middle" fill="#ff6eb4" font-family="monospace" font-size="7">ETCH</text>
<circle cx="870" cy="310" r="18" fill="#ffd700" opacity="0.12"/>
<circle cx="870" cy="310" r="11" fill="#ffd700" opacity="0.3" filter="url(#masterGlow)"/>
<circle cx="870" cy="310" r="5" fill="#ffd700" opacity="0.9" filter="url(#superGlow)"/>
<line x1="830" y1="308" x2="865" y2="310" stroke="#00f0ff" stroke-width="1.2" stroke-dasharray="5,3" opacity="0.6"/>
<line x1="1010" y1="309" x2="882" y2="311" stroke="#7b2dff" stroke-width="1.2" stroke-dasharray="5,3" opacity="0.6"/>
<line x1="720" y1="341" x2="865" y2="313" stroke="#ff006e" stroke-width="1.2" stroke-dasharray="5,3" opacity="0.6"/>
<polygon points="865,307 870,310 865,313" fill="#ffd700" opacity="0.9"/>
<text x="870" y="296" text-anchor="middle" fill="#ffd700" font-family="monospace" font-size="7" opacity="0.8">PRV</text>
<text x="150" y="118" text-anchor="start" fill="#334466" font-family="monospace" font-size="11" letter-spacing="5" opacity="0.9">[ KULLAILABS ] &#x2014; MCOP v2.2.1</text>
<line x1="150" y1="130" x2="560" y2="130" stroke="#00f0ff" stroke-width="0.5" opacity="0.3"/>
<text x="145" y="230" fill="url(#titleGrad)" font-family="system-ui,Arial,sans-serif" font-size="105" font-weight="900" letter-spacing="-4" filter="url(#superGlow)">MCOP</text>
<text x="148" y="295" fill="#ffffff" font-family="system-ui,Arial,sans-serif" font-size="46" font-weight="200" letter-spacing="8" opacity="0.95">Framework</text>
<text x="495" y="295" fill="url(#subGrad)" font-family="system-ui,Arial,sans-serif" font-size="46" font-weight="700" letter-spacing="2" filter="url(#textGlow)"> 2.0</text>
<line x1="148" y1="318" x2="600" y2="318" stroke="url(#horizLine)" stroke-width="1.5"/>
<text x="150" y="348" fill="#7799bb" font-family="system-ui,Arial,sans-serif" font-size="16" letter-spacing="1">Deterministic &#x00B7; Auditable &#x00B7; Provenance-First &#x00B7; Human-in-Loop</text>
<text x="150" y="388" fill="#334466" font-family="monospace" font-size="12" letter-spacing="3">encode &#x2192; resonate &#x2192; etch &#x2192; provenance</text>
<rect x="150" y="420" width="130" height="34" rx="4" fill="#00f0ff" fill-opacity="0.08" stroke="#00f0ff" stroke-width="1" opacity="0.8"/>
<text x="215" y="442" text-anchor="middle" fill="#00f0ff" font-family="monospace" font-size="11" font-weight="bold">TypeScript</text>
<rect x="298" y="420" width="130" height="34" rx="4" fill="#7b2dff" fill-opacity="0.08" stroke="#7b2dff" stroke-width="1" opacity="0.8"/>
<text x="363" y="442" text-anchor="middle" fill="#c084fc" font-family="monospace" font-size="11" font-weight="bold">Python</text>
<rect x="446" y="420" width="130" height="34" rx="4" fill="#ff006e" fill-opacity="0.08" stroke="#ff006e" stroke-width="1" opacity="0.8"/>
<text x="511" y="442" text-anchor="middle" fill="#ff6eb4" font-family="monospace" font-size="11" font-weight="bold">Next.js 16</text>
<text x="150" y="500" fill="#1a2a3a" font-family="monospace" font-size="11">github.com/Kuonirad/MCOP-Framework-2.0</text>
<rect x="1060" y="510" width="110" height="30" rx="5" fill="#ffd700" fill-opacity="0.1" stroke="#ffd700" stroke-width="1" opacity="0.7"/>
<text x="1115" y="530" text-anchor="middle" fill="#ffd700" font-family="monospace" font-size="12" font-weight="bold" filter="url(#textGlow)">v 2.2.1</text>
</g>
</svg>
