<svg xmlns="http://www.w3.org/2000/svg" width="1200" height="120" viewBox="0 0 1200 120"><defs><radialGradient id="bg" cx="50%" cy="50%" r="80%"><stop offset="0%" stop-color="#0a0a1f"/><stop offset="100%" stop-color="#030308"/></radialGradient><filter id="glow"><feGaussianBlur result="blur" stdDeviation="3"/><feMerge><feMergeNode in="blur"/><feMergeNode in="SourceGraphic"/></feMerge></filter></defs><rect width="1200" height="120" fill="url(#bg)"/><line x1="60" x2="1140" y1="10" y2="10" stroke="#00f0ff" stroke-width=".5" opacity=".2"/><line x1="60" x2="1140" y1="110" y2="110" stroke="#7b2dff" stroke-width=".5" opacity=".2"/><rect width="180" height="70" x="80" y="25" fill="#00f0ff" fill-opacity=".05" stroke="#00f0ff" stroke-width="1" opacity=".8" rx="6"/><text x="170" y="52" fill="#00f0ff" filter="url(#glow)" font-family="monospace" font-size="28" font-weight="900" text-anchor="middle">96.6%</text><text x="170" y="72" fill="#79a" font-family="monospace" font-size="11" letter-spacing="1" text-anchor="middle">TEST COVERAGE</text><circle cx="115" cy="88" r="4" fill="#00f0ff" opacity=".6"/><circle cx="129" cy="88" r="4" fill="#00f0ff" opacity=".4"/><circle cx="143" cy="88" r="4" fill="#00f0ff" opacity=".2"/><rect width="180" height="70" x="300" y="25" fill="#7b2dff" fill-opacity=".05" stroke="#7b2dff" stroke-width="1" opacity=".8" rx="6"/><text x="390" y="52" fill="#c084fc" filter="url(#glow)" font-family="monospace" font-size="28" font-weight="900" text-anchor="middle">47</text><text x="390" y="72" fill="#79a" font-family="monospace" font-size="11" letter-spacing="1" text-anchor="middle">GIT BRANCHES</text><rect width="120" height="3" x="330" y="84" fill="#7b2dff" opacity=".2" rx="1"/><rect width="75" height="3" x="330" y="84" fill="#7b2dff" opacity=".7" rx="1"/><rect width="180" height="70" x="520" y="25" fill="#ff006e" fill-opacity=".05" stroke="#ff006e" stroke-width="1" opacity=".8" rx="6"/><text x="610" y="52" fill="#ff6eb4" filter="url(#glow)" font-family="monospace" font-size="28" font-weight="900" text-anchor="middle">428+</text><text x="610" y="72" fill="#79a" font-family="monospace" font-size="11" letter-spacing="1" text-anchor="middle">COMMITS</text><polyline fill="none" stroke="#ff006e" stroke-width="1.5" points="535 90 555 85 575 88 595 82 615 87 635 80 655 84 675 79 695 83" opacity=".6"/><rect width="180" height="70" x="740" y="25" fill="gold" fill-opacity=".05" stroke="gold" stroke-width="1" opacity=".8" rx="6"/><text x="830" y="52" fill="gold" filter="url(#glow)" font-family="monospace" font-size="28" font-weight="900" text-anchor="middle">v2.2.1</text><text x="830" y="72" fill="#79a" font-family="monospace" font-size="11" letter-spacing="1" text-anchor="middle">RELEASE</text><polygon fill="gold" points="815 82 820 90 830 85 840 90 845 82 830 87" opacity=".4"/><rect width="180" height="70" x="960" y="25" fill="#0f8" fill-opacity=".05" stroke="#0f8" stroke-width="1" opacity=".7" rx="6"/><text x="1050" y="52" fill="#0f8" font-family="monospace" font-size="22" font-weight="900" text-anchor="middle">BUSL 1.1</text><text x="1050" y="72" fill="#79a" font-family="monospace" font-size="11" letter-spacing="1" text-anchor="middle">LICENSE</text><text x="1050" y="94" fill="#345" font-family="monospace" font-size="9" text-anchor="middle">→ MIT 2030-04-26</text></svg>