<svg xmlns="http://www.w3.org/2000/svg" width="1280" height="900" viewBox="0 0 1280 900"><defs><linearGradient id="bgGrad" x1="0" x2="1" y1="0" y2="1"><stop offset="0%" stop-color="#050a12"/><stop offset="100%" stop-color="#0a0f1e"/></linearGradient><filter id="glow-cyan"><feGaussianBlur result="blur" stdDeviation="3"/><feMerge><feMergeNode in="blur"/><feMergeNode in="SourceGraphic"/></feMerge></filter><filter id="glow-purple"><feGaussianBlur result="blur" stdDeviation="3"/><feMerge><feMergeNode in="blur"/><feMergeNode in="SourceGraphic"/></feMerge></filter><filter id="glow-gold"><feGaussianBlur result="blur" stdDeviation="4"/><feMerge><feMergeNode in="blur"/><feMergeNode in="SourceGraphic"/></feMerge></filter><marker id="arrow-cyan" markerHeight="7" markerWidth="10" orient="auto" refX="9" refY="3.5"><polygon fill="#00d4ff" points="0 0 10 3.5 0 7"/></marker><marker id="arrow-purple" markerHeight="7" markerWidth="10" orient="auto" refX="9" refY="3.5"><polygon fill="#a855f7" points="0 0 10 3.5 0 7"/></marker><marker id="arrow-gold" markerHeight="7" markerWidth="10" orient="auto" refX="9" refY="3.5"><polygon fill="#f5a623" points="0 0 10 3.5 0 7"/></marker><marker id="arrow-cyan-rev" markerHeight="7" markerWidth="10" orient="auto" refX="1" refY="3.5"><polygon fill="#00d4ff" points="10 0 0 3.5 10 7"/></marker></defs><rect width="1280" height="900" fill="url(#bgGrad)"/><rect width="1244" height="864" x="18" y="18" fill="none" stroke="#c8922a" stroke-width="2" opacity=".9" rx="6" ry="6"/><rect width="1236" height="856" x="22" y="22" fill="none" stroke="#c8922a" stroke-width=".5" opacity=".4" rx="4" ry="4"/><line x1="18" x2="18" y1="60" y2="18" stroke="#f5c842" stroke-width="2"/><line x1="18" x2="60" y1="18" y2="18" stroke="#f5c842" stroke-width="2"/><line x1="1262" x2="1220" y1="18" y2="18" stroke="#f5c842" stroke-width="2"/><line x1="1262" x2="1262" y1="18" y2="60" stroke="#f5c842" stroke-width="2"/><line x1="18" x2="18" y1="840" y2="882" stroke="#f5c842" stroke-width="2"/><line x1="18" x2="60" y1="882" y2="882" stroke="#f5c842" stroke-width="2"/><line x1="1262" x2="1220" y1="882" y2="882" stroke="#f5c842" stroke-width="2"/><line x1="1262" x2="1262" y1="840" y2="882" stroke="#f5c842" stroke-width="2"/><circle cx="640" cy="18" r="3" fill="#f5c842"/><circle cx="640" cy="882" r="3" fill="#f5c842"/><circle cx="18" cy="450" r="3" fill="#f5c842"/><circle cx="1262" cy="450" r="3" fill="#f5c842"/><rect width="520" height="44" x="380" y="38" fill="none" stroke="#c8922a" stroke-width="1.5" rx="4"/><text x="640" y="67" fill="#f5c842" font-family="'Courier New', monospace" font-size="18" font-weight="bold" letter-spacing="4" text-anchor="middle">MCOP FRAMEWORK 2.0 — CORE TRIAD</text><text x="160" y="128" fill="#00d4ff" font-family="'Courier New', monospace" font-size="13" font-weight="bold" letter-spacing="2" text-anchor="middle">USER INPUT</text><text x="160" y="148" fill="#7ecfea" font-family="'Courier New', monospace" font-size="12" text-anchor="middle">Context</text><line x1="160" x2="160" y1="155" y2="188" stroke="#00d4ff" stroke-width="2" marker-end="url(#arrow-cyan)"/><rect width="204" height="148" x="58" y="192" fill="#051a2a" stroke="#00d4ff" stroke-width="2" filter="url(#glow-cyan)" rx="8"/><polygon fill="none" stroke="#00d4ff" stroke-width="2" points="160 208 173 216 173 232 160 240 147 232 147 216"/><circle cx="160" cy="224" r="4" fill="#00d4ff"/><line x1="160" x2="160" y1="212" y2="218" stroke="#00d4ff" stroke-width="1.5"/><line x1="165" x2="162" y1="215" y2="220" stroke="#00d4ff" stroke-width="1.5"/><line x1="155" x2="158" y1="215" y2="220" stroke="#00d4ff" stroke-width="1.5"/><text x="160" y="258" fill="#fff" font-family="'Courier New', monospace" font-size="15" font-weight="bold" text-anchor="middle">NOVA-NEO</text><text x="160" y="276" fill="#fff" font-family="'Courier New', monospace" font-size="15" font-weight="bold" text-anchor="middle">Encoder</text><text x="160" y="298" fill="#7ecfea" font-family="'Courier New', monospace" font-size="11" text-anchor="middle">Deterministic</text><text x="160" y="314" fill="#7ecfea" font-family="'Courier New', monospace" font-size="11" text-anchor="middle">SHA-256 hash</text><line x1="262" x2="730" y1="260" y2="220" stroke="#00d4ff" stroke-width="2" marker-end="url(#arrow-cyan)"/><text x="480" y="225" fill="#00d4ff" font-family="'Courier New', monospace" font-size="12" text-anchor="middle">Tensor</text><line x1="262" x2="420" y1="300" y2="440" stroke="#00d4ff" stroke-width="2" marker-end="url(#arrow-cyan)"/><rect width="240" height="148" x="730" y="152" fill="#1a0a2e" stroke="#a855f7" stroke-width="2" filter="url(#glow-purple)" rx="8"/><circle cx="850" cy="200" r="18" fill="none" stroke="#a855f7" stroke-width="1.5"/><circle cx="850" cy="200" r="10" fill="none" stroke="#a855f7" stroke-width="1"/><circle cx="850" cy="200" r="4" fill="#d946ef"/><ellipse cx="850" cy="200" fill="none" stroke="#a855f7" stroke-width="1" rx="24" ry="8" transform="rotate(-30,850,200)"/><text x="850" y="234" fill="#fff" font-family="'Courier New', monospace" font-size="15" font-weight="bold" text-anchor="middle">Holographic Etch</text><text x="850" y="256" fill="#c084fc" font-family="'Courier New', monospace" font-size="11" text-anchor="middle">Rank-1 micro-etch</text><text x="850" y="273" fill="#c084fc" font-family="'Courier New', monospace" font-size="11" text-anchor="middle">Confidence delta</text><text x="850" y="290" fill="#c084fc" font-family="'Courier New', monospace" font-size="11" text-anchor="middle">Replayable audit</text><text x="850" y="325" fill="#a855f7" font-family="'Courier New', monospace" font-size="11" text-anchor="middle">Micro-Etch Weights</text><line x1="850" x2="850" y1="300" y2="418" stroke="#a855f7" stroke-dasharray="4 3" stroke-width="1.5" marker-end="url(#arrow-purple)"/><rect width="240" height="148" x="310" y="422" fill="#051a2a" stroke="#00d4ff" stroke-width="2" filter="url(#glow-cyan)" rx="8"/><circle cx="430" cy="462" r="6" fill="#00d4ff"/><circle cx="418" cy="478" r="4" fill="#00d4ff"/><circle cx="442" cy="478" r="4" fill="#00d4ff"/><circle cx="412" cy="494" r="4" fill="#00d4ff"/><circle cx="430" cy="494" r="4" fill="#00d4ff"/><circle cx="448" cy="494" r="4" fill="#00d4ff"/><line x1="430" x2="418" y1="462" y2="478" stroke="#00d4ff" stroke-width="1.5"/><line x1="430" x2="442" y1="462" y2="478" stroke="#00d4ff" stroke-width="1.5"/><line x1="418" x2="412" y1="478" y2="494" stroke="#00d4ff" stroke-width="1.5"/><line x1="418" x2="430" y1="478" y2="494" stroke="#00d4ff" stroke-width="1.5"/><line x1="442" x2="430" y1="478" y2="494" stroke="#00d4ff" stroke-width="1.5"/><line x1="442" x2="448" y1="478" y2="494" stroke="#00d4ff" stroke-width="1.5"/><text x="430" y="520" fill="#fff" font-family="'Courier New', monospace" font-size="15" font-weight="bold" text-anchor="middle">Stigmergy v5</text><text x="430" y="540" fill="#7ecfea" font-family="'Courier New', monospace" font-size="11" text-anchor="middle">Pheromone store</text><text x="430" y="556" fill="#7ecfea" font-family="'Courier New', monospace" font-size="11" text-anchor="middle">Cosine recall</text><text x="430" y="572" fill="#7ecfea" font-family="'Courier New', monospace" font-size="11" text-anchor="middle">Merkle-chained</text><rect width="260" height="148" x="720" y="422" fill="#1a0a2e" stroke="#a855f7" stroke-width="2" filter="url(#glow-purple)" rx="8"/><polygon fill="none" stroke="#a855f7" stroke-width="2" points="850 448 870 468 850 494 830 468"/><line x1="830" x2="870" y1="468" y2="468" stroke="#a855f7" stroke-width="1"/><line x1="850" x2="840" y1="448" y2="468" stroke="#a855f7" stroke-width="1"/><line x1="850" x2="860" y1="448" y2="468" stroke="#a855f7" stroke-width="1"/><text x="850" y="516" fill="#fff" font-family="'Courier New', monospace" font-size="15" font-weight="bold" text-anchor="middle">Dialectical</text><text x="850" y="535" fill="#fff" font-family="'Courier New', monospace" font-size="15" font-weight="bold" text-anchor="middle">Synthesizer</text><line x1="720" x2="554" y1="494" y2="494" stroke="#a855f7" stroke-width="1.5" marker-end="url(#arrow-purple)" marker-start="url(#arrow-cyan-rev)"/><text x="636" y="514" fill="#a855f7" font-family="'Courier New', monospace" font-size="12" text-anchor="middle">Resonance</text><line x1="554" x2="720" y1="490" y2="480" stroke="#00d4ff" stroke-width="1.5" marker-end="url(#arrow-cyan)"/><text x="850" y="592" fill="#a855f7" font-family="'Courier New', monospace" font-size="11" text-anchor="middle">Refined Prompt</text><line x1="850" x2="850" y1="570" y2="638" stroke="#a855f7" stroke-width="1.5" marker-end="url(#arrow-purple)"/><rect width="420" height="80" x="640" y="642" fill="#1a110a" stroke="#f5a623" stroke-width="2" filter="url(#glow-gold)" rx="8"/><circle cx="680" cy="682" r="10" fill="none" stroke="#f5a623" stroke-width="2"/><circle cx="680" cy="682" r="3" fill="#f5a623"/><line x1="668" x2="660" y1="670" y2="662" stroke="#f5a623" stroke-width="1.5"/><circle cx="657" cy="659" r="4" fill="none" stroke="#f5a623" stroke-width="1.5"/><line x1="692" x2="700" y1="670" y2="662" stroke="#f5a623" stroke-width="1.5"/><circle cx="703" cy="659" r="4" fill="none" stroke="#f5a623" stroke-width="1.5"/><line x1="668" x2="660" y1="694" y2="702" stroke="#f5a623" stroke-width="1.5"/><circle cx="657" cy="705" r="4" fill="none" stroke="#f5a623" stroke-width="1.5"/><line x1="692" x2="700" y1="694" y2="702" stroke="#f5a623" stroke-width="1.5"/><circle cx="703" cy="705" r="4" fill="none" stroke="#f5a623" stroke-width="1.5"/><text x="850" y="676" fill="#f5c842" font-family="'Courier New', monospace" font-size="16" font-weight="bold" text-anchor="middle">Adapter Layer v2.1</text><text x="850" y="698" fill="#e0a050" font-family="'Courier New', monospace" font-size="12" text-anchor="middle">REST · SDK · MCP</text><line x1="760" x2="500" y1="722" y2="780" stroke="#f5a623" stroke-width="2" marker-end="url(#arrow-gold)"/><line x1="940" x2="1060" y1="722" y2="780" stroke="#f5a623" stroke-width="2" marker-end="url(#arrow-gold)"/><rect width="320" height="88" x="340" y="784" fill="#051a2a" stroke="#00d4ff" stroke-width="2" rx="8"/><rect width="44" height="52" x="368" y="802" fill="none" stroke="#00d4ff" stroke-width="1.5" rx="4"/><text x="390" y="834" fill="#00d4ff" font-family="monospace" font-size="14" text-anchor="middle">&lt;/&gt;</text><text x="500" y="816" fill="#fff" font-family="'Courier New', monospace" font-size="15" font-weight="bold" text-anchor="middle">Next.js</text><text x="500" y="836" fill="#fff" font-family="'Courier New', monospace" font-size="15" font-weight="bold" text-anchor="middle">Experience</text><text x="500" y="856" fill="#7ecfea" font-family="'Courier New', monospace" font-size="11" text-anchor="middle">Merkle Root</text><rect width="320" height="88" x="900" y="784" fill="#051a2a" stroke="#00d4ff" stroke-width="2" rx="8"/><line x1="928" x2="952" y1="828" y2="828" stroke="#00d4ff" stroke-width="2"/><line x1="940" x2="940" y1="816" y2="840" stroke="#00d4ff" stroke-width="2"/><line x1="931" x2="949" y1="819" y2="837" stroke="#00d4ff" stroke-width="1.5"/><line x1="949" x2="931" y1="819" y2="837" stroke="#00d4ff" stroke-width="1.5"/><text x="1080" y="810" fill="#fff" font-family="'Courier New', monospace" font-size="13" text-anchor="middle">Magnific · Higgsfield</text><text x="1080" y="832" fill="#fff" font-family="'Courier New', monospace" font-size="13" text-anchor="middle">Utopai · Generic</text></svg>